<svg width="214" height="43" viewBox="0 0 214 43" fill="none" xmlns="http://www.w3.org/2000/svg">
<path d="M57.8693 12.3153V10.9091H67.6875V12.3153H63.571V24H61.9858V12.3153H57.8693ZM69.9295 24V14.1818H71.438V24H69.9295ZM70.6966 12.5455C70.4025 12.5455 70.149 12.4453 69.9359 12.245C69.7271 12.0447 69.6227 11.804 69.6227 11.5227C69.6227 11.2415 69.7271 11.0007 69.9359 10.8004C70.149 10.6001 70.4025 10.5 70.6966 10.5C70.9906 10.5 71.242 10.6001 71.4508 10.8004C71.6639 11.0007 71.7704 11.2415 71.7704 11.5227C71.7704 11.804 71.6639 12.0447 71.4508 12.245C71.242 12.4453 70.9906 12.5455 70.6966 12.5455ZM78.1896 24.2045C77.2692 24.2045 76.4766 23.9872 75.8118 23.5526C75.147 23.1179 74.6357 22.5192 74.2777 21.7564C73.9197 20.9936 73.7408 20.1222 73.7408 19.142C73.7408 18.1449 73.924 17.2649 74.2905 16.5021C74.6612 15.7351 75.1768 15.1364 75.8374 14.706C76.5021 14.2713 77.2777 14.054 78.1641 14.054C78.8544 14.054 79.4766 14.1818 80.0305 14.4375C80.5845 14.6932 81.0384 15.0511 81.392 15.5114C81.7457 15.9716 81.9652 16.5085 82.0504 17.1222H80.5419C80.4268 16.6747 80.1712 16.2784 79.7749 15.9332C79.3828 15.5838 78.8544 15.4091 78.1896 15.4091C77.6016 15.4091 77.0859 15.5625 76.6428 15.8693C76.2038 16.1719 75.8608 16.6001 75.6136 17.1541C75.3707 17.7038 75.2493 18.3494 75.2493 19.0909C75.2493 19.8494 75.3686 20.5099 75.6072 21.0724C75.8501 21.6349 76.1911 22.0717 76.63 22.3828C77.0732 22.6939 77.593 22.8494 78.1896 22.8494C78.5817 22.8494 78.9375 22.7812 79.2571 22.6449C79.5767 22.5085 79.8473 22.3125 80.0689 22.0568C80.2905 21.8011 80.4482 21.4943 80.5419 21.1364H82.0504C81.9652 21.7159 81.7543 22.2379 81.4176 22.7024C81.0852 23.1626 80.6442 23.5291 80.0945 23.8018C79.549 24.0703 78.9141 24.2045 78.1896 24.2045ZM85.6619 20.4205L85.6364 18.554H85.9432L90.2386 14.1818H92.1051L87.5284 18.8097H87.4006L85.6619 20.4205ZM84.2557 24V10.9091H85.7642V24H84.2557ZM90.4943 24L86.6591 19.142L87.733 18.0938L92.4119 24H90.4943ZM97.7589 24.2045C96.8129 24.2045 95.9968 23.9957 95.3107 23.5781C94.6289 23.1562 94.1026 22.5682 93.7319 21.8139C93.3654 21.0554 93.1822 20.1733 93.1822 19.1676C93.1822 18.1619 93.3654 17.2756 93.7319 16.5085C94.1026 15.7372 94.6183 15.1364 95.2788 14.706C95.9435 14.2713 96.7191 14.054 97.6055 14.054C98.1168 14.054 98.6218 14.1392 99.1204 14.3097C99.619 14.4801 100.073 14.7571 100.482 15.1406C100.891 15.5199 101.217 16.0227 101.46 16.6491C101.703 17.2756 101.824 18.0469 101.824 18.9631V19.6023H94.256V18.2983H100.29C100.29 17.7443 100.179 17.25 99.9577 16.8153C99.7404 16.3807 99.4293 16.0376 99.0245 15.7862C98.6239 15.5348 98.1509 15.4091 97.6055 15.4091C97.0046 15.4091 96.4847 15.5582 96.0458 15.8565C95.6112 16.1506 95.2766 16.5341 95.0423 17.0071C94.8079 17.4801 94.6907 17.9872 94.6907 18.5284V19.3977C94.6907 20.1392 94.8185 20.7678 95.0742 21.2834C95.3342 21.7947 95.6942 22.1847 96.1545 22.4531C96.6147 22.7173 97.1495 22.8494 97.7589 22.8494C98.1552 22.8494 98.5131 22.794 98.8327 22.6832C99.1566 22.5682 99.4357 22.3977 99.6701 22.1719C99.9045 21.9418 100.086 21.6562 100.213 21.3153L101.671 21.7244C101.517 22.2188 101.26 22.6534 100.897 23.0284C100.535 23.3991 100.088 23.6889 99.555 23.8977C99.0224 24.1023 98.4237 24.2045 97.7589 24.2045ZM108.389 14.1818V15.4602H103.301V14.1818H108.389ZM104.784 11.8295H106.292V21.1875C106.292 21.6136 106.354 21.9332 106.478 22.1463C106.605 22.3551 106.767 22.4957 106.963 22.5682C107.164 22.6364 107.375 22.6705 107.596 22.6705C107.762 22.6705 107.899 22.6619 108.005 22.6449C108.112 22.6236 108.197 22.6065 108.261 22.5938L108.568 23.9489C108.466 23.9872 108.323 24.0256 108.14 24.0639C107.956 24.1065 107.724 24.1278 107.443 24.1278C107.017 24.1278 106.599 24.0362 106.19 23.853C105.785 23.6697 105.449 23.3906 105.18 23.0156C104.916 22.6406 104.784 22.1676 104.784 21.5966V11.8295ZM110.658 24V14.1818H112.167V24H110.658ZM111.425 12.5455C111.131 12.5455 110.877 12.4453 110.664 12.245C110.456 12.0447 110.351 11.804 110.351 11.5227C110.351 11.2415 110.456 11.0007 110.664 10.8004C110.877 10.6001 111.131 10.5 111.425 10.5C111.719 10.5 111.971 10.6001 112.179 10.8004C112.392 11.0007 112.499 11.2415 112.499 11.5227C112.499 11.804 112.392 12.0447 112.179 12.245C111.971 12.4453 111.719 12.5455 111.425 12.5455ZM116.438 18.0938V24H114.93V14.1818H116.387V15.7159H116.515C116.745 15.2173 117.094 14.8168 117.563 14.5142C118.032 14.2074 118.637 14.054 119.378 14.054C120.043 14.054 120.625 14.1903 121.123 14.4631C121.622 14.7315 122.01 15.1406 122.287 15.6903C122.564 16.2358 122.702 16.9261 122.702 17.7614V24H121.194V17.8636C121.194 17.0923 120.993 16.4915 120.593 16.0611C120.192 15.6264 119.643 15.4091 118.944 15.4091C118.462 15.4091 118.032 15.5135 117.653 15.7223C117.278 15.9311 116.981 16.2358 116.764 16.6364C116.547 17.0369 116.438 17.5227 116.438 18.0938ZM129.422 27.8864C128.693 27.8864 128.067 27.7926 127.543 27.6051C127.018 27.4219 126.582 27.179 126.232 26.8764C125.887 26.5781 125.612 26.2585 125.408 25.9176L126.609 25.0739C126.746 25.2528 126.918 25.4574 127.127 25.6875C127.336 25.9219 127.621 26.1243 127.984 26.2947C128.35 26.4695 128.83 26.5568 129.422 26.5568C130.214 26.5568 130.869 26.3651 131.384 25.9815C131.9 25.598 132.158 24.9972 132.158 24.179V22.1847H132.03C131.919 22.3636 131.761 22.5852 131.557 22.8494C131.357 23.1094 131.067 23.3416 130.688 23.5462C130.312 23.7464 129.805 23.8466 129.166 23.8466C128.374 23.8466 127.662 23.6591 127.031 23.2841C126.405 22.9091 125.908 22.3636 125.542 21.6477C125.18 20.9318 124.999 20.0625 124.999 19.0398C124.999 18.0341 125.175 17.1584 125.529 16.4126C125.883 15.6626 126.375 15.0831 127.006 14.674C127.636 14.2607 128.365 14.054 129.192 14.054C129.831 14.054 130.338 14.1605 130.713 14.3736C131.092 14.5824 131.382 14.821 131.582 15.0895C131.787 15.3537 131.945 15.571 132.055 15.7415H132.209V14.1818H133.666V24.2812C133.666 25.125 133.474 25.8111 133.091 26.3395C132.712 26.8722 132.2 27.2621 131.557 27.5092C130.918 27.7607 130.206 27.8864 129.422 27.8864ZM129.371 22.4915C129.976 22.4915 130.487 22.353 130.905 22.076C131.322 21.799 131.64 21.4006 131.857 20.8807C132.075 20.3608 132.183 19.7386 132.183 19.0142C132.183 18.3068 132.077 17.6825 131.864 17.1413C131.651 16.6001 131.335 16.1761 130.918 15.8693C130.5 15.5625 129.984 15.4091 129.371 15.4091C128.732 15.4091 128.199 15.571 127.773 15.8949C127.351 16.2187 127.033 16.6534 126.82 17.1989C126.612 17.7443 126.507 18.3494 126.507 19.0142C126.507 19.696 126.614 20.299 126.827 20.8232C127.044 21.343 127.364 21.7521 127.786 22.0504C128.212 22.3445 128.74 22.4915 129.371 22.4915ZM136.185 24V10.9091H138.952V21.718H144.565V24H136.185ZM149.146 24.1854C148.52 24.1854 147.961 24.0767 147.471 23.8594C146.981 23.6378 146.594 23.3118 146.308 22.8814C146.027 22.4467 145.886 21.9055 145.886 21.2578C145.886 20.7124 145.986 20.2543 146.187 19.8835C146.387 19.5128 146.66 19.2145 147.005 18.9886C147.35 18.7628 147.742 18.5923 148.181 18.4773C148.624 18.3622 149.089 18.2812 149.574 18.2344C150.145 18.1747 150.606 18.1193 150.955 18.0682C151.305 18.0128 151.558 17.9318 151.716 17.8253C151.873 17.7187 151.952 17.5611 151.952 17.3523V17.3139C151.952 16.9091 151.824 16.5959 151.569 16.3743C151.317 16.1527 150.959 16.0419 150.495 16.0419C150.005 16.0419 149.615 16.1506 149.325 16.3679C149.035 16.581 148.844 16.8494 148.75 17.1733L146.231 16.9688C146.359 16.3722 146.611 15.8565 146.986 15.4219C147.361 14.983 147.844 14.6463 148.437 14.4119C149.033 14.1733 149.724 14.054 150.508 14.054C151.053 14.054 151.575 14.1179 152.074 14.2457C152.577 14.3736 153.022 14.5717 153.41 14.8402C153.802 15.1087 154.111 15.4538 154.336 15.8757C154.562 16.2933 154.675 16.794 154.675 17.3778V24H152.093V22.6385H152.016C151.858 22.9453 151.648 23.2159 151.383 23.4503C151.119 23.6804 150.802 23.8615 150.431 23.9936C150.06 24.1214 149.632 24.1854 149.146 24.1854ZM149.926 22.3061C150.327 22.3061 150.68 22.2273 150.987 22.0696C151.294 21.9077 151.535 21.6903 151.709 21.4176C151.884 21.1449 151.971 20.8359 151.971 20.4908V19.4489C151.886 19.5043 151.769 19.5554 151.62 19.6023C151.475 19.6449 151.311 19.6854 151.128 19.7237C150.944 19.7578 150.761 19.7898 150.578 19.8196C150.395 19.8452 150.229 19.8686 150.079 19.8899C149.76 19.9368 149.481 20.0114 149.242 20.1136C149.003 20.2159 148.818 20.3544 148.686 20.5291C148.554 20.6996 148.488 20.9126 148.488 21.1683C148.488 21.5391 148.622 21.8224 148.89 22.0185C149.163 22.2102 149.508 22.3061 149.926 22.3061ZM156.839 24V10.9091H159.562V15.831H159.645C159.764 15.5668 159.937 15.2983 160.163 15.0256C160.393 14.7486 160.691 14.5185 161.058 14.3352C161.428 14.1477 161.889 14.054 162.438 14.054C163.154 14.054 163.815 14.2415 164.42 14.6165C165.025 14.9872 165.509 15.5476 165.871 16.2976C166.233 17.0433 166.414 17.9787 166.414 19.1037C166.414 20.1989 166.237 21.1236 165.884 21.8778C165.534 22.6278 165.057 23.1967 164.452 23.5845C163.851 23.968 163.178 24.1598 162.432 24.1598C161.904 24.1598 161.454 24.0724 161.083 23.8977C160.717 23.723 160.416 23.5036 160.182 23.2393C159.948 22.9709 159.769 22.7003 159.645 22.4276H159.524V24H156.839ZM159.504 19.0909C159.504 19.6747 159.585 20.1839 159.747 20.6186C159.909 21.0533 160.144 21.392 160.45 21.6349C160.757 21.8736 161.13 21.9929 161.569 21.9929C162.012 21.9929 162.387 21.8714 162.694 21.6286C163.001 21.3814 163.233 21.0405 163.391 20.6058C163.553 20.1669 163.634 19.6619 163.634 19.0909C163.634 18.5241 163.555 18.0256 163.397 17.5952C163.24 17.1648 163.007 16.8281 162.7 16.5852C162.394 16.3423 162.017 16.2209 161.569 16.2209C161.126 16.2209 160.751 16.3381 160.444 16.5724C160.142 16.8068 159.909 17.1392 159.747 17.5696C159.585 18 159.504 18.5071 159.504 19.0909ZM176.4 16.9815L173.907 17.1349C173.865 16.9219 173.773 16.7301 173.632 16.5597C173.492 16.3849 173.306 16.2464 173.076 16.1442C172.85 16.0376 172.58 15.9844 172.265 15.9844C171.843 15.9844 171.487 16.0739 171.197 16.2528C170.907 16.4276 170.762 16.6619 170.762 16.956C170.762 17.1903 170.856 17.3885 171.044 17.5504C171.231 17.7124 171.553 17.8423 172.009 17.9403L173.786 18.2983C174.74 18.4943 175.452 18.8097 175.921 19.2443C176.39 19.679 176.624 20.25 176.624 20.9574C176.624 21.6009 176.434 22.1655 176.055 22.6513C175.68 23.1371 175.164 23.5163 174.508 23.7891C173.856 24.0575 173.104 24.1918 172.252 24.1918C170.952 24.1918 169.917 23.9212 169.145 23.38C168.378 22.8345 167.929 22.093 167.797 21.1555L170.475 21.0149C170.556 21.4112 170.752 21.7138 171.063 21.9226C171.374 22.1271 171.772 22.2294 172.258 22.2294C172.735 22.2294 173.119 22.1378 173.409 21.9545C173.703 21.767 173.852 21.5263 173.856 21.2322C173.852 20.9851 173.748 20.7827 173.543 20.625C173.338 20.4631 173.023 20.3395 172.597 20.2543L170.897 19.9155C169.938 19.7237 169.224 19.3913 168.755 18.9183C168.291 18.4453 168.059 17.8423 168.059 17.1094C168.059 16.4787 168.229 15.9354 168.57 15.4794C168.915 15.0234 169.399 14.6719 170.021 14.4247C170.647 14.1776 171.38 14.054 172.22 14.054C173.46 14.054 174.436 14.3161 175.147 14.8402C175.863 15.3643 176.281 16.0781 176.4 16.9815ZM189.339 10.9091V24H186.949L181.253 15.7607H181.157V24H178.39V10.9091H180.819L186.469 19.142H186.584V10.9091H189.339ZM191.626 24V10.9091H200.294V13.1911H194.394V16.3104H199.718V18.5923H194.394V24H191.626ZM201.657 13.1911V10.9091H212.408V13.1911H208.4V24H205.665V13.1911H201.657Z" fill="white"/>
<rect width="42" height="43" rx="8" fill="#D9D9D9"/>
<path d="M57.7045 36V30.1818H59.6705C60.1269 30.1818 60.5 30.2642 60.7898 30.429C61.0814 30.5919 61.2973 30.8125 61.4375 31.0909C61.5777 31.3693 61.6477 31.6799 61.6477 32.0227C61.6477 32.3655 61.5777 32.6771 61.4375 32.9574C61.2992 33.2377 61.0852 33.4612 60.7955 33.6278C60.5057 33.7926 60.1345 33.875 59.6818 33.875H58.2727V33.25H59.6591C59.9716 33.25 60.2225 33.196 60.4119 33.0881C60.6013 32.9801 60.7386 32.8343 60.8239 32.6506C60.911 32.465 60.9545 32.2557 60.9545 32.0227C60.9545 31.7898 60.911 31.5814 60.8239 31.3977C60.7386 31.214 60.6004 31.0701 60.4091 30.9659C60.2178 30.8598 59.964 30.8068 59.6477 30.8068H58.4091V36H57.7045ZM64.4176 36.0909C64.0237 36.0909 63.678 35.9972 63.3807 35.8097C63.0852 35.6222 62.8542 35.3598 62.6875 35.0227C62.5227 34.6856 62.4403 34.2917 62.4403 33.8409C62.4403 33.3864 62.5227 32.9896 62.6875 32.6506C62.8542 32.3116 63.0852 32.0483 63.3807 31.8608C63.678 31.6733 64.0237 31.5795 64.4176 31.5795C64.8116 31.5795 65.1563 31.6733 65.4517 31.8608C65.7491 32.0483 65.9801 32.3116 66.1449 32.6506C66.3116 32.9896 66.3949 33.3864 66.3949 33.8409C66.3949 34.2917 66.3116 34.6856 66.1449 35.0227C65.9801 35.3598 65.7491 35.6222 65.4517 35.8097C65.1563 35.9972 64.8116 36.0909 64.4176 36.0909ZM64.4176 35.4886C64.7169 35.4886 64.9631 35.4119 65.1562 35.2585C65.3494 35.1051 65.4924 34.9034 65.5852 34.6534C65.678 34.4034 65.7244 34.1326 65.7244 33.8409C65.7244 33.5492 65.678 33.2775 65.5852 33.0256C65.4924 32.7737 65.3494 32.5701 65.1562 32.4148C64.9631 32.2595 64.7169 32.1818 64.4176 32.1818C64.1184 32.1818 63.8722 32.2595 63.679 32.4148C63.4858 32.5701 63.3428 32.7737 63.25 33.0256C63.1572 33.2775 63.1108 33.5492 63.1108 33.8409C63.1108 34.1326 63.1572 34.4034 63.25 34.6534C63.3428 34.9034 63.4858 35.1051 63.679 35.2585C63.8722 35.4119 64.1184 35.4886 64.4176 35.4886ZM68.2585 36L66.929 31.6364H67.6335L68.5767 34.9773H68.6222L69.554 31.6364H70.2699L71.1903 34.9659H71.2358L72.179 31.6364H72.8835L71.554 36H70.8949L69.9403 32.6477H69.8722L68.9176 36H68.2585ZM75.451 36.0909C75.0305 36.0909 74.6679 35.9981 74.3629 35.8125C74.0599 35.625 73.826 35.3636 73.6612 35.0284C73.4983 34.6913 73.4169 34.2992 73.4169 33.8523C73.4169 33.4053 73.4983 33.0114 73.6612 32.6705C73.826 32.3277 74.0552 32.0606 74.3487 31.8693C74.6442 31.6761 74.9889 31.5795 75.3828 31.5795C75.6101 31.5795 75.8345 31.6174 76.0561 31.6932C76.2777 31.7689 76.4794 31.892 76.6612 32.0625C76.843 32.2311 76.9879 32.4545 77.0959 32.733C77.2038 33.0114 77.2578 33.3542 77.2578 33.7614V34.0455H73.8942V33.4659H76.576C76.576 33.2197 76.5268 33 76.4283 32.8068C76.3317 32.6136 76.1934 32.4612 76.0135 32.3494C75.8355 32.2377 75.6252 32.1818 75.3828 32.1818C75.1158 32.1818 74.8847 32.2481 74.6896 32.3807C74.4964 32.5114 74.3478 32.6818 74.2436 32.892C74.1394 33.1023 74.0874 33.3277 74.0874 33.5682V33.9545C74.0874 34.2841 74.1442 34.5634 74.2578 34.7926C74.3733 35.0199 74.5334 35.1932 74.7379 35.3125C74.9425 35.4299 75.1802 35.4886 75.451 35.4886C75.6271 35.4886 75.7862 35.464 75.9283 35.4148C76.0722 35.3636 76.1963 35.2879 76.3004 35.1875C76.4046 35.0852 76.4851 34.9583 76.5419 34.8068L77.1896 34.9886C77.1214 35.2083 77.0069 35.4015 76.8459 35.5682C76.6849 35.733 76.486 35.8617 76.2493 35.9545C76.0125 36.0455 75.7464 36.0909 75.451 36.0909ZM78.2777 36V31.6364H78.9254V32.2955H78.9709C79.0504 32.0795 79.1944 31.9044 79.4027 31.7699C79.611 31.6354 79.8459 31.5682 80.1072 31.5682C80.1565 31.5682 80.218 31.5691 80.2919 31.571C80.3658 31.5729 80.4216 31.5758 80.4595 31.5795V32.2614C80.4368 32.2557 80.3847 32.2472 80.3033 32.2358C80.2237 32.2225 80.1394 32.2159 80.0504 32.2159C79.8383 32.2159 79.6489 32.2604 79.4822 32.3494C79.3175 32.4366 79.1868 32.5578 79.0902 32.7131C78.9955 32.8665 78.9482 33.0417 78.9482 33.2386V36H78.2777ZM82.951 36.0909C82.5305 36.0909 82.1679 35.9981 81.8629 35.8125C81.5599 35.625 81.326 35.3636 81.1612 35.0284C80.9983 34.6913 80.9169 34.2992 80.9169 33.8523C80.9169 33.4053 80.9983 33.0114 81.1612 32.6705C81.326 32.3277 81.5552 32.0606 81.8487 31.8693C82.1442 31.6761 82.4889 31.5795 82.8828 31.5795C83.1101 31.5795 83.3345 31.6174 83.5561 31.6932C83.7777 31.7689 83.9794 31.892 84.1612 32.0625C84.343 32.2311 84.4879 32.4545 84.5959 32.733C84.7038 33.0114 84.7578 33.3542 84.7578 33.7614V34.0455H81.3942V33.4659H84.076C84.076 33.2197 84.0268 33 83.9283 32.8068C83.8317 32.6136 83.6934 32.4612 83.5135 32.3494C83.3355 32.2377 83.1252 32.1818 82.8828 32.1818C82.6158 32.1818 82.3847 32.2481 82.1896 32.3807C81.9964 32.5114 81.8478 32.6818 81.7436 32.892C81.6394 33.1023 81.5874 33.3277 81.5874 33.5682V33.9545C81.5874 34.2841 81.6442 34.5634 81.7578 34.7926C81.8733 35.0199 82.0334 35.1932 82.2379 35.3125C82.4425 35.4299 82.6802 35.4886 82.951 35.4886C83.1271 35.4886 83.2862 35.464 83.4283 35.4148C83.5722 35.3636 83.6963 35.2879 83.8004 35.1875C83.9046 35.0852 83.9851 34.9583 84.0419 34.8068L84.6896 34.9886C84.6214 35.2083 84.5069 35.4015 84.3459 35.5682C84.1849 35.733 83.986 35.8617 83.7493 35.9545C83.5125 36.0455 83.2464 36.0909 82.951 36.0909ZM87.4254 36.0909C87.0618 36.0909 86.7408 35.9991 86.4624 35.8153C86.1839 35.6297 85.9661 35.3684 85.8089 35.0312C85.6518 34.6922 85.5732 34.2917 85.5732 33.8295C85.5732 33.3712 85.6518 32.9735 85.8089 32.6364C85.9661 32.2992 86.1849 32.0388 86.4652 31.8551C86.7455 31.6714 87.0694 31.5795 87.4368 31.5795C87.7209 31.5795 87.9453 31.6269 88.1101 31.7216C88.2768 31.8144 88.4036 31.9205 88.4908 32.0398C88.5798 32.1572 88.6489 32.2538 88.6982 32.3295H88.755V30.1818H89.4254V36H88.7777V35.3295H88.6982C88.6489 35.4091 88.5788 35.5095 88.4879 35.6307C88.397 35.75 88.2673 35.857 88.0987 35.9517C87.9302 36.0445 87.7057 36.0909 87.4254 36.0909ZM87.5163 35.4886C87.7853 35.4886 88.0125 35.4186 88.1982 35.2784C88.3838 35.1364 88.5249 34.9403 88.6214 34.6903C88.718 34.4384 88.7663 34.1477 88.7663 33.8182C88.7663 33.4924 88.719 33.2074 88.6243 32.9631C88.5296 32.7169 88.3894 32.5256 88.2038 32.3892C88.0182 32.2509 87.7891 32.1818 87.5163 32.1818C87.2322 32.1818 86.9955 32.2547 86.8061 32.4006C86.6186 32.5445 86.4775 32.7405 86.3828 32.9886C86.29 33.2348 86.2436 33.5114 86.2436 33.8182C86.2436 34.1288 86.291 34.411 86.3857 34.6648C86.4822 34.9167 86.6243 35.1174 86.8118 35.267C87.0012 35.4148 87.236 35.4886 87.5163 35.4886ZM93.0874 36V30.1818H93.7578V32.3295H93.8146C93.8639 32.2538 93.9321 32.1572 94.0192 32.0398C94.1082 31.9205 94.2351 31.8144 94.3999 31.7216C94.5665 31.6269 94.7919 31.5795 95.076 31.5795C95.4434 31.5795 95.7673 31.6714 96.0476 31.8551C96.3279 32.0388 96.5466 32.2992 96.7038 32.6364C96.861 32.9735 96.9396 33.3712 96.9396 33.8295C96.9396 34.2917 96.861 34.6922 96.7038 35.0312C96.5466 35.3684 96.3288 35.6297 96.0504 35.8153C95.772 35.9991 95.451 36.0909 95.0874 36.0909C94.8071 36.0909 94.5826 36.0445 94.4141 35.9517C94.2455 35.857 94.1158 35.75 94.0249 35.6307C93.9339 35.5095 93.8639 35.4091 93.8146 35.3295H93.7351V36H93.0874ZM93.7464 33.8182C93.7464 34.1477 93.7947 34.4384 93.8913 34.6903C93.9879 34.9403 94.129 35.1364 94.3146 35.2784C94.5002 35.4186 94.7275 35.4886 94.9964 35.4886C95.2768 35.4886 95.5107 35.4148 95.6982 35.267C95.8875 35.1174 96.0296 34.9167 96.1243 34.6648C96.2209 34.411 96.2692 34.1288 96.2692 33.8182C96.2692 33.5114 96.2218 33.2348 96.1271 32.9886C96.0343 32.7405 95.8932 32.5445 95.7038 32.4006C95.5163 32.2547 95.2805 32.1818 94.9964 32.1818C94.7237 32.1818 94.4946 32.2509 94.3089 32.3892C94.1233 32.5256 93.9832 32.7169 93.8885 32.9631C93.7938 33.2074 93.7464 33.4924 93.7464 33.8182ZM98.2408 37.6364C98.1271 37.6364 98.0258 37.6269 97.9368 37.608C97.8478 37.5909 97.7862 37.5739 97.7521 37.5568L97.9226 36.9659C98.0855 37.0076 98.2294 37.0227 98.3544 37.0114C98.4794 37 98.5902 36.9441 98.6868 36.8438C98.7853 36.7453 98.8752 36.5852 98.9567 36.3636L99.0817 36.0227L97.468 31.6364H98.1953L99.3999 35.1136H99.4453L100.65 31.6364H101.377L99.5249 36.6364C99.4415 36.8617 99.3383 37.0483 99.2152 37.196C99.0921 37.3456 98.9491 37.4564 98.7862 37.5284C98.6252 37.6004 98.4434 37.6364 98.2408 37.6364ZM109.796 32.2188H108.569C108.573 32.0559 108.552 31.9119 108.506 31.7869C108.461 31.66 108.393 31.5521 108.302 31.4631C108.213 31.3741 108.104 31.3068 107.975 31.2614C107.846 31.214 107.701 31.1903 107.54 31.1903C107.23 31.1903 106.945 31.268 106.685 31.4233C106.426 31.5786 106.207 31.804 106.029 32.0994C105.851 32.393 105.728 32.7481 105.66 33.1648C105.594 33.5663 105.597 33.9025 105.671 34.1733C105.745 34.4441 105.876 34.6487 106.063 34.7869C106.253 34.9233 106.488 34.9915 106.771 34.9915C106.945 34.9915 107.111 34.9697 107.268 34.9261C107.425 34.8807 107.568 34.8163 107.697 34.733C107.827 34.6477 107.941 34.5445 108.038 34.4233C108.136 34.3021 108.213 34.1648 108.268 34.0114H109.504C109.426 34.2784 109.305 34.536 109.14 34.7841C108.977 35.0322 108.775 35.2538 108.535 35.4489C108.294 35.642 108.021 35.7955 107.714 35.9091C107.407 36.0227 107.071 36.0795 106.705 36.0795C106.177 36.0795 105.723 35.9583 105.344 35.7159C104.968 35.4735 104.696 35.1241 104.529 34.6676C104.362 34.2112 104.331 33.661 104.435 33.017C104.54 32.3939 104.743 31.8655 105.046 31.4318C105.351 30.9962 105.721 30.6657 106.157 30.4403C106.594 30.215 107.062 30.1023 107.56 30.1023C107.907 30.1023 108.22 30.1496 108.501 30.2443C108.781 30.339 109.02 30.4773 109.217 30.6591C109.415 30.839 109.565 31.0597 109.665 31.321C109.766 31.5824 109.809 31.8816 109.796 32.2188ZM111.67 33.4773L111.249 36H110.042L111.008 30.1818H112.181L111.817 32.4062H111.866C112.006 32.1487 112.198 31.947 112.442 31.8011C112.687 31.6534 112.976 31.5795 113.309 31.5795C113.612 31.5795 113.865 31.6458 114.067 31.7784C114.272 31.9091 114.417 32.0975 114.502 32.3438C114.587 32.5881 114.602 32.8807 114.545 33.2216L114.079 36H112.871L113.298 33.4375C113.341 33.1686 113.306 32.9593 113.192 32.8097C113.081 32.66 112.903 32.5852 112.658 32.5852C112.494 32.5852 112.342 32.6203 112.204 32.6903C112.066 32.7604 111.949 32.8627 111.854 32.9972C111.762 33.1297 111.7 33.2898 111.67 33.4773ZM117.003 36.0852C116.556 36.0852 116.186 35.9943 115.892 35.8125C115.598 35.6288 115.392 35.3693 115.273 35.0341C115.155 34.697 115.135 34.2983 115.213 33.8381C115.289 33.3892 115.441 32.9953 115.67 32.6562C115.902 32.3172 116.191 32.053 116.54 31.8636C116.888 31.6742 117.277 31.5795 117.705 31.5795C117.992 31.5795 118.253 31.6259 118.486 31.7188C118.721 31.8097 118.916 31.9479 119.071 32.1335C119.226 32.3172 119.332 32.5473 119.389 32.8239C119.448 33.1004 119.447 33.4242 119.386 33.7955L119.332 34.1278H115.651L115.767 33.3778H118.312C118.341 33.2036 118.33 33.0492 118.278 32.9148C118.227 32.7803 118.142 32.6752 118.023 32.5994C117.903 32.5218 117.757 32.483 117.582 32.483C117.404 32.483 117.238 32.5265 117.082 32.6136C116.927 32.7008 116.796 32.8153 116.69 32.9574C116.586 33.0975 116.519 33.25 116.489 33.4148L116.355 34.1591C116.317 34.3883 116.325 34.5786 116.378 34.7301C116.433 34.8816 116.527 34.9953 116.662 35.071C116.796 35.1449 116.967 35.1818 117.173 35.1818C117.308 35.1818 117.434 35.1629 117.551 35.125C117.67 35.0871 117.777 35.0312 117.869 34.9574C117.962 34.8816 118.038 34.7879 118.097 34.6761L119.202 34.75C119.099 35.0189 118.944 35.2538 118.736 35.4545C118.527 35.6534 118.277 35.8087 117.983 35.9205C117.691 36.0303 117.365 36.0852 117.003 36.0852ZM119.815 36L120.542 31.6364H121.715L121.587 32.3977H121.633C121.758 32.1269 121.925 31.9223 122.136 31.7841C122.348 31.6439 122.576 31.5739 122.82 31.5739C122.881 31.5739 122.944 31.5777 123.011 31.5852C123.079 31.5909 123.139 31.6004 123.192 31.6136L123.011 32.6903C122.958 32.6714 122.882 32.6562 122.783 32.6449C122.687 32.6316 122.595 32.625 122.508 32.625C122.332 32.625 122.168 32.6638 122.016 32.7415C121.865 32.8172 121.737 32.9233 121.633 33.0597C121.531 33.196 121.463 33.3532 121.431 33.5312L121.025 36H119.815ZM123.088 36L123.815 31.6364H124.989L124.861 32.3977H124.906C125.031 32.1269 125.199 31.9223 125.409 31.7841C125.621 31.6439 125.849 31.5739 126.094 31.5739C126.154 31.5739 126.218 31.5777 126.284 31.5852C126.352 31.5909 126.413 31.6004 126.466 31.6136L126.284 32.6903C126.231 32.6714 126.155 32.6562 126.057 32.6449C125.96 32.6316 125.868 32.625 125.781 32.625C125.605 32.625 125.441 32.6638 125.29 32.7415C125.138 32.8172 125.01 32.9233 124.906 33.0597C124.804 33.196 124.737 33.3532 124.705 33.5312L124.298 36H123.088ZM126.974 37.6364C126.819 37.6364 126.677 37.6241 126.548 37.5994C126.42 37.5767 126.313 37.5473 126.23 37.5114L126.656 36.608C126.791 36.6515 126.913 36.6742 127.023 36.6761C127.134 36.678 127.237 36.6496 127.33 36.5909C127.422 36.5322 127.508 36.4356 127.585 36.3011L127.693 36.1165L126.875 31.6364H128.102L128.472 34.8466H128.517L129.963 31.6364H131.29L128.793 36.4716C128.67 36.7083 128.524 36.9138 128.355 37.0881C128.188 37.2623 127.991 37.3968 127.761 37.4915C127.534 37.5881 127.272 37.6364 126.974 37.6364ZM133.255 36L134.221 30.1818H134.925L134.062 35.375H136.766L136.664 36H133.255ZM138.937 36.1023C138.66 36.1023 138.418 36.0502 138.21 35.946C138.001 35.84 137.847 35.6875 137.746 35.4886C137.646 35.2879 137.619 35.0455 137.664 34.7614C137.708 34.5114 137.792 34.3087 137.917 34.1534C138.042 33.9962 138.193 33.8731 138.371 33.7841C138.551 33.6932 138.745 33.6259 138.951 33.5824C139.159 33.5369 139.367 33.5019 139.573 33.4773C139.842 33.4432 140.061 33.4167 140.229 33.3977C140.398 33.3788 140.525 33.3475 140.61 33.304C140.695 33.2604 140.747 33.1856 140.766 33.0795V33.0568C140.812 32.7784 140.775 32.5616 140.656 32.4062C140.536 32.2491 140.323 32.1705 140.016 32.1705C139.698 32.1705 139.432 32.2405 139.218 32.3807C139.004 32.5208 138.846 32.6705 138.744 32.8295L138.153 32.6023C138.308 32.3371 138.494 32.1307 138.71 31.983C138.925 31.8333 139.152 31.7292 139.388 31.6705C139.625 31.6098 139.853 31.5795 140.073 31.5795C140.213 31.5795 140.371 31.5966 140.548 31.6307C140.724 31.6629 140.888 31.7301 141.042 31.8324C141.197 31.9347 141.314 32.089 141.391 32.2955C141.471 32.5019 141.482 32.7784 141.425 33.125L140.948 36H140.278L140.38 35.4091H140.346C140.285 35.5038 140.192 35.6051 140.067 35.7131C139.944 35.821 139.788 35.9129 139.599 35.9886C139.411 36.0644 139.191 36.1023 138.937 36.1023ZM139.13 35.5C139.395 35.5 139.627 35.4479 139.826 35.3438C140.027 35.2396 140.188 35.1051 140.309 34.9403C140.432 34.7756 140.509 34.6023 140.539 34.4205L140.641 33.8068C140.607 33.8409 140.54 33.8722 140.44 33.9006C140.339 33.9271 140.226 33.9508 140.099 33.9716C139.974 33.9905 139.852 34.0076 139.732 34.0227C139.615 34.036 139.52 34.0473 139.448 34.0568C139.27 34.0795 139.101 34.1165 138.94 34.1676C138.781 34.2169 138.646 34.2917 138.536 34.392C138.428 34.4905 138.361 34.625 138.335 34.7955C138.295 35.0284 138.351 35.2045 138.502 35.3239C138.654 35.4413 138.863 35.5 139.13 35.5ZM142.263 36L143.229 30.1818H143.899L143.547 32.3295H143.604C143.664 32.2538 143.749 32.1572 143.857 32.0398C143.964 31.9205 144.109 31.8144 144.291 31.7216C144.473 31.6269 144.706 31.5795 144.99 31.5795C145.357 31.5795 145.665 31.6714 145.913 31.8551C146.163 32.0388 146.339 32.2992 146.439 32.6364C146.541 32.9735 146.554 33.3712 146.479 33.8295C146.403 34.2917 146.258 34.6922 146.044 35.0312C145.832 35.3684 145.571 35.6297 145.26 35.8153C144.951 35.9991 144.615 36.0909 144.251 36.0909C143.971 36.0909 143.754 36.0445 143.601 35.9517C143.449 35.857 143.338 35.75 143.266 35.6307C143.196 35.5095 143.142 35.4091 143.104 35.3295H143.024L142.911 36H142.263ZM143.286 33.8182C143.232 34.1477 143.233 34.4384 143.288 34.6903C143.343 34.9403 143.452 35.1364 143.615 35.2784C143.778 35.4186 143.994 35.4886 144.263 35.4886C144.543 35.4886 144.789 35.4148 145.001 35.267C145.214 35.1174 145.388 34.9167 145.524 34.6648C145.661 34.411 145.755 34.1288 145.808 33.8182C145.857 33.5114 145.856 33.2348 145.803 32.9886C145.751 32.7405 145.643 32.5445 145.479 32.4006C145.316 32.2547 145.092 32.1818 144.808 32.1818C144.536 32.1818 144.294 32.2509 144.084 32.3892C143.875 32.5256 143.703 32.7169 143.567 32.9631C143.432 33.2074 143.339 33.4924 143.286 33.8182ZM150.8 32.6136L150.163 32.7841C150.141 32.6818 150.101 32.5833 150.044 32.4886C149.989 32.392 149.904 32.3134 149.788 32.2528C149.675 32.1903 149.519 32.1591 149.322 32.1591C149.055 32.1591 148.823 32.2206 148.626 32.3438C148.429 32.465 148.317 32.6193 148.288 32.8068C148.26 32.9716 148.298 33.1032 148.402 33.2017C148.506 33.3002 148.68 33.3807 148.925 33.4432L149.55 33.6023C149.925 33.6989 150.192 33.8437 150.351 34.0369C150.512 34.2282 150.567 34.4773 150.516 34.7841C150.474 35.0341 150.365 35.2576 150.189 35.4545C150.013 35.6515 149.787 35.8068 149.513 35.9205C149.238 36.0341 148.932 36.0909 148.595 36.0909C148.146 36.0909 147.792 35.9943 147.533 35.8011C147.273 35.6061 147.135 35.3239 147.118 34.9545L147.788 34.7955C147.805 35.0284 147.889 35.2045 148.038 35.3239C148.19 35.4413 148.402 35.5 148.675 35.5C148.987 35.5 149.248 35.4337 149.456 35.3011C149.664 35.1667 149.783 35.0057 149.811 34.8182C149.839 34.6648 149.809 34.5369 149.72 34.4347C149.633 34.3324 149.482 34.2557 149.266 34.2045L148.572 34.0341C148.186 33.9375 147.915 33.7898 147.76 33.5909C147.607 33.392 147.555 33.142 147.607 32.8409C147.648 32.5947 147.754 32.3769 147.925 32.1875C148.097 31.9981 148.313 31.8494 148.572 31.7415C148.834 31.6335 149.118 31.5795 149.425 31.5795C149.857 31.5795 150.179 31.6742 150.393 31.8636C150.607 32.0511 150.743 32.3011 150.8 32.6136Z" fill="white"/>
</svg>
